<?xml version="1.0" standalone="no"?>
<!DOCTYPE svg PUBLIC "-//W3C//DTD SVG 20010904//EN"
 "http://www.w3.org/TR/2001/REC-SVG-20010904/DTD/svg10.dtd">
<svg version="1.0" xmlns="http://www.w3.org/2000/svg"
 width="260.000000pt" height="260.000000pt" viewBox="0 0 260.000000 260.000000"
 preserveAspectRatio="xMidYMid meet">
<metadata>
Created by potrace 1.11, written by Peter Selinger 2001-2013
</metadata>
<g transform="translate(0.000000,260.000000) scale(0.100000,-0.100000)"
fill="#000000" stroke="none">
<path d="M0 1300 l0 -1300 1300 0 1300 0 0 1300 0 1300 -1300 0 -1300 0 0
-1300z m1635 1070 c3 -5 2 -10 -4 -10 -5 0 -13 5 -16 10 -3 6 -2 10 4 10 5 0
13 -4 16 -10z m-125 -24 c0 -9 -30 -14 -35 -6 -4 6 3 10 14 10 12 0 21 -2 21
-4z m-19 -28 c22 -6 39 -15 39 -20 0 -5 -9 -6 -20 -3 -11 3 -20 2 -20 -3 0
-12 29 -24 41 -17 5 4 6 -1 3 -9 -8 -20 -5 -21 -49 14 -21 17 -47 30 -58 30
-20 0 -20 -1 3 -25 13 -14 33 -26 44 -26 17 -1 18 -2 4 -6 -28 -7 -21 -23 10
-25 42 -2 45 -3 81 -21 19 -9 43 -17 53 -17 11 0 16 -4 13 -10 -3 -5 -2 -10 3
-10 5 0 14 10 20 23 l11 22 0 -22 c1 -17 7 -23 22 -23 18 0 19 -2 9 -15 -15
-18 1 -20 19 -2 9 8 12 8 7 0 -3 -7 2 -14 14 -18 11 -3 20 -11 20 -17 0 -5 11
-19 25 -29 14 -12 22 -26 18 -35 -3 -9 0 -14 8 -12 9 2 13 -4 11 -16 -2 -11 1
-15 7 -11 6 3 11 4 11 1 0 -2 3 -13 6 -23 4 -13 3 -14 -3 -5 -8 10 -12 10 -23
-3 -9 -11 -9 -15 -1 -15 7 0 19 -6 26 -14 17 -17 38 -103 29 -118 -4 -7 -2 -8
4 -4 7 4 12 14 12 22 0 8 5 12 10 9 15 -9 12 -41 -4 -58 -18 -17 -23 -48 -12
-66 5 -8 4 -16 -4 -21 -9 -6 0 -16 29 -34 26 -17 39 -31 35 -39 -4 -7 -4 -9 0
-5 10 8 36 -14 29 -25 -3 -4 6 -22 20 -40 13 -18 34 -54 46 -81 19 -43 19 -48
4 -35 -10 8 -30 20 -45 27 -16 7 -38 17 -51 22 -12 6 -46 12 -75 14 -29 2 -56
6 -58 9 -3 3 -20 -1 -39 -8 -18 -8 -35 -11 -39 -8 -3 4 -12 -2 -20 -12 -13
-18 -26 -18 -68 0 -13 5 -18 3 -18 -8 0 -8 -7 -18 -16 -21 -14 -5 -14 -10 4
-40 26 -44 29 -64 13 -97 -9 -18 -10 -39 -3 -78 7 -41 6 -55 -4 -66 -8 -7 -14
-23 -14 -35 0 -12 -5 -31 -11 -42 -9 -16 -8 -23 2 -29 10 -6 7 -9 -10 -9 -14
0 -36 -14 -55 -35 -36 -39 -50 -43 -73 -20 -8 9 -23 13 -33 10 -12 -4 -23 3
-35 21 -11 17 -23 24 -36 21 -10 -3 -31 4 -46 16 l-28 22 19 -30 c10 -17 26
-36 34 -43 15 -11 14 -14 -1 -30 -17 -16 -18 -16 -11 2 7 19 7 19 -19 0 -15
-10 -24 -25 -22 -32 3 -9 -1 -11 -13 -8 -13 4 -18 1 -18 -12 0 -16 7 -18 38
-16 27 2 40 -2 47 -14 8 -14 12 -15 22 -5 20 20 30 15 17 -8 -11 -18 -10 -23
11 -40 13 -10 33 -19 45 -20 20 0 20 -1 -3 -10 -18 -7 -27 -6 -34 3 -6 9 -7 6
-4 -10 5 -20 2 -22 -26 -18 -63 8 -152 28 -162 36 -5 4 -22 10 -37 14 -36 8
-36 25 0 38 15 6 33 22 39 35 10 20 9 23 -2 13 -15 -13 -30 3 -20 21 4 6 -2 5
-14 -3 -12 -7 -21 -16 -21 -20 0 -17 -62 -39 -90 -33 -25 6 -30 3 -36 -19 -4
-16 -12 -25 -21 -24 -19 4 -27 -50 -11 -69 6 -7 8 -26 5 -42 -4 -19 -2 -31 6
-34 9 -3 9 -7 0 -18 -15 -15 -17 -33 -3 -24 6 3 7 -1 4 -9 -3 -9 -11 -14 -16
-13 -6 1 -15 -12 -20 -30 -4 -18 -14 -35 -21 -40 -19 -12 -37 -12 -37 0 0 8
-4 7 -12 -1 -16 -16 -48 -15 -48 1 -1 6 -7 -1 -14 -18 l-12 -30 -7 25 c-3 13
-9 21 -13 17 -4 -4 -13 -2 -21 4 -15 13 -18 33 -3 24 6 -3 10 -2 10 3 0 6 -11
13 -25 16 -16 4 -25 13 -25 25 0 14 -5 18 -19 14 -15 -4 -20 2 -26 29 -4 18
-13 42 -20 53 -13 21 -14 242 -2 262 3 5 9 32 13 59 3 27 10 59 15 71 4 12 9
50 10 85 1 35 11 90 21 123 24 77 47 205 37 205 -5 0 3 22 16 49 14 27 25 53
25 59 0 5 6 12 14 15 7 3 24 20 36 39 l23 33 -34 -32 c-33 -31 -57 -44 -45
-24 4 5 3 11 -1 14 -5 2 -3 3 3 1 7 -1 27 13 45 32 33 34 31 48 -3 17 -10 -9
-18 -11 -18 -5 0 16 47 45 59 37 6 -3 8 0 5 8 -3 8 2 17 11 21 9 3 13 10 10
16 -3 5 -2 10 2 10 5 0 19 27 32 61 14 33 32 66 41 72 17 12 20 17 20 35 0 5
11 14 25 20 14 7 25 20 25 31 0 10 7 21 15 25 8 3 15 13 15 21 0 9 4 14 10 10
5 -3 8 7 5 24 -3 24 1 30 21 35 22 6 30 23 24 51 -1 6 4 4 11 -2 18 -18 30
-16 23 2 -4 11 1 15 17 15 19 0 21 2 9 10 -10 6 -1 8 29 5 27 -2 55 2 73 11
19 10 34 12 41 6 7 -5 28 -13 47 -17 31 -7 33 -6 21 9 -7 9 -23 16 -34 16 -39
0 6 25 52 29 7 0 31 -4 52 -11z m64 2 c3 -5 1 -10 -4 -10 -6 0 -11 5 -11 10 0
6 2 10 4 10 3 0 8 -4 11 -10z m509 -196 c5 -14 4 -15 -9 -4 -17 14 -19 20 -6
20 5 0 12 -7 15 -16z m16 -45 c0 -6 -4 -7 -10 -4 -5 3 -10 11 -10 16 0 6 5 7
10 4 6 -3 10 -11 10 -16z m-1260 -89 c0 -5 -5 -10 -11 -10 -5 0 -7 5 -4 10 3
6 8 10 11 10 2 0 4 -4 4 -10z m72 -22 c-16 -16 -16 -52 0 -42 7 5 3 -5 -10
-20 -12 -16 -19 -33 -16 -38 3 -5 0 -8 -8 -6 -7 1 -32 -18 -56 -43 -41 -45
-41 -46 -16 -43 19 2 23 -1 16 -8 -6 -6 -25 -11 -42 -11 -23 0 -27 -3 -16 -9
18 -10 7 -52 -15 -54 -16 -1 -67 -22 -59 -24 3 -1 16 -4 29 -6 35 -6 39 -14 9
-14 -31 0 -52 22 -45 47 15 55 17 74 7 68 -15 -9 -12 17 5 39 11 14 15 16 15
5 0 -9 7 -5 19 10 10 14 17 30 15 36 -3 6 6 21 19 33 l24 22 -4 -32 c-4 -31
-3 -32 11 -14 11 14 16 16 16 6 0 -20 60 47 61 68 0 13 2 13 6 3 4 -9 10 -2
19 19 8 18 17 30 21 26 4 -3 1 -12 -5 -18z m1059 -111 c-7 -7 -5 -14 7 -23 9
-8 12 -14 6 -14 -18 0 -37 28 -30 46 3 8 11 12 17 9 7 -5 8 -10 0 -18z m-1083
-32 c-3 -3 -9 2 -12 12 -6 14 -5 15 5 6 7 -7 10 -15 7 -18z m-229 -183 c-5 -2
-9 -12 -9 -22 0 -11 -6 -23 -13 -27 -8 -4 -19 -17 -25 -28 -20 -35 -15 10 7
63 11 26 23 61 27 77 7 29 8 29 14 -15 4 -25 3 -46 -1 -48z m148 62 c-3 -3
-12 -4 -19 -1 -8 3 -5 6 6 6 11 1 17 -2 13 -5z m-147 -155 c0 -6 -4 -7 -10 -4
-5 3 -10 11 -10 16 0 6 5 7 10 4 6 -3 10 -11 10 -16z m-36 -115 c4 -14 14 -24
25 -24 10 0 22 -10 28 -22 13 -31 -2 -198 -23 -246 l-17 -37 -8 38 c-7 28 -5
46 6 67 19 36 19 40 0 40 -16 0 -40 -45 -36 -67 1 -7 -5 -13 -14 -13 -8 0 -15
5 -15 10 0 6 -9 10 -20 10 -23 0 -26 -23 -10 -65 8 -20 15 -26 30 -22 11 3 25
-2 31 -9 7 -8 18 -13 26 -10 18 7 16 -24 -2 -48 -8 -11 -15 -34 -15 -50 0 -17
-6 -39 -14 -48 -11 -16 -16 -13 -53 25 -44 45 -52 66 -79 197 -23 115 -23 216
2 266 15 30 29 43 64 55 43 16 46 16 67 -3 12 -11 24 -31 27 -44z m1291 -34
c3 -5 2 -10 -4 -10 -5 0 -13 5 -16 10 -3 6 -2 10 4 10 5 0 13 -4 16 -10z
m-231 -353 c8 -21 6 -31 -6 -44 -23 -23 -52 -10 -43 20 4 12 7 30 8 40 2 27
30 16 41 -16z m237 24 c21 -1 35 -51 18 -62 -7 -4 -16 -6 -20 -4 -3 3 -4 -6
-2 -18 3 -15 -2 -29 -14 -38 -17 -13 -17 -13 -3 6 11 15 11 17 0 8 -15 -14
-20 -36 -21 -100 -1 -49 -21 -63 -38 -26 -8 18 -18 24 -39 23 -48 -4 -55 -1
-49 20 3 11 1 23 -4 26 -22 13 18 124 54 155 16 14 33 17 62 14 22 -2 47 -4
56 -4z m-433 -106 c-3 -14 1 -30 8 -36 17 -14 19 -33 3 -23 -8 4 -9 0 -4 -15
9 -28 -6 -27 -35 4 -20 21 -21 25 -6 31 9 3 16 11 16 16 0 6 -12 3 -27 -7 -24
-15 -23 -12 7 18 43 43 43 43 38 12z m-263 -136 c50 -17 100 -32 112 -33 11 0
20 -4 18 -7 -2 -3 19 -14 46 -24 42 -15 48 -20 37 -31 -15 -15 -84 -21 -112
-9 -16 7 -18 5 -13 -8 3 -8 0 -21 -8 -27 -16 -13 -55 -90 -55 -108 0 -7 -4
-12 -10 -12 -5 0 -7 -7 -4 -15 4 -8 1 -15 -4 -15 -6 0 -13 8 -15 18 -3 9 -5 4
-6 -13 0 -16 8 -43 19 -60 13 -19 17 -38 13 -55 -7 -32 -7 -32 -27 -24 -12 5
-14 10 -6 20 8 9 8 19 0 35 -8 14 -8 19 -1 15 6 -4 11 -4 11 1 0 11 -20 40
-20 30 0 -4 -9 -3 -20 3 -17 9 -18 14 -9 31 5 11 23 28 38 37 24 14 26 19 15
30 -11 10 -19 10 -36 1 -17 -9 -23 -9 -26 0 -2 6 -8 8 -14 5 -5 -3 -22 -7 -37
-8 -24 -2 -27 1 -23 18 3 11 7 15 10 8 6 -19 22 -4 22 21 0 16 -3 18 -9 8 -6
-9 -11 -10 -15 -2 -8 12 10 51 24 51 6 0 10 5 10 11 0 5 -6 7 -12 3 -10 -6
-10 -4 0 7 15 17 16 33 0 23 -8 -5 -9 -2 -4 11 5 15 4 16 -9 5 -13 -10 -15 -9
-15 8 0 12 5 24 11 27 5 4 14 18 19 31 5 13 11 24 12 24 2 0 44 -14 93 -31z
m673 -70 c-1 -20 -4 -26 -9 -17 -12 18 -11 61 0 53 5 -3 9 -19 9 -36z m-122
-17 c-17 -16 -18 -16 -5 5 7 12 15 20 18 17 3 -2 -3 -12 -13 -22z m-1145 -55
c-10 -9 -11 -8 -5 6 3 10 9 15 12 12 3 -3 0 -11 -7 -18z m-34 -19 c-3 -8 -6
-5 -6 6 -1 11 2 17 5 13 3 -3 4 -12 1 -19z m539 -87 c-4 -5 -1 -11 6 -13 8 -3
6 -7 -5 -11 -17 -6 -24 12 -10 26 9 10 15 8 9 -2z m7 -61 c-18 -32 -28 -37
-38 -20 -3 6 2 13 12 17 10 3 22 12 26 20 4 7 10 13 13 13 3 0 -3 -13 -13 -30z
m162 20 c3 -5 1 -10 -4 -10 -6 0 -11 5 -11 10 0 6 2 10 4 10 3 0 8 -4 11 -10z
m-268 -47 c-3 -10 -5 -2 -5 17 0 19 2 27 5 18 2 -10 2 -26 0 -35z m104 -16
c-10 -9 -11 -8 -5 6 3 10 9 15 12 12 3 -3 0 -11 -7 -18z m-1 -86 c-1 -13 -29
45 -29 59 0 8 6 0 14 -19 8 -18 15 -36 15 -40z m60 45 c0 -3 -4 -8 -10 -11 -5
-3 -10 -1 -10 4 0 6 5 11 10 11 6 0 10 -2 10 -4z"/>
<path d="M1790 1796 c0 -2 7 -7 16 -10 8 -3 12 -2 9 4 -6 10 -25 14 -25 6z"/>
<path d="M1220 1706 c0 -2 7 -9 15 -16 9 -7 15 -8 15 -2 0 5 -7 12 -15 16 -8
3 -15 4 -15 2z"/>
<path d="M1333 1640 c-11 -16 -10 -18 2 -14 8 4 15 12 15 20 0 19 -3 18 -17
-6z"/>
<path d="M1304 1569 c-4 -7 -21 -9 -44 -5 -21 3 -53 3 -71 -1 -32 -6 -33 -7
-9 -13 22 -5 19 -8 -25 -22 -93 -30 -98 -31 -91 -19 5 7 1 9 -8 5 -19 -7 -21
-34 -3 -35 6 -1 26 0 42 1 18 0 42 -7 57 -19 14 -12 36 -21 48 -21 17 0 21 -4
16 -17 -4 -10 -4 -14 0 -11 4 4 15 3 25 -3 60 -32 -35 -63 -103 -35 -21 9 -39
16 -40 15 -2 0 -11 3 -21 7 -26 10 -35 -5 -13 -22 11 -8 16 -14 11 -14 -17 0
38 -34 56 -35 10 -1 28 -12 39 -25 11 -13 20 -18 20 -12 0 6 -4 14 -10 17 -5
3 -10 11 -10 16 0 6 6 7 12 2 16 -9 67 -4 91 9 10 5 30 12 44 14 36 7 77 35
62 44 -8 6 -8 9 2 12 12 4 12 7 0 21 -8 10 -9 17 -3 17 6 0 14 -4 17 -10 3 -5
11 -10 16 -10 16 0 -17 52 -55 89 -19 19 -33 38 -30 42 3 5 -3 6 -13 2 -16 -6
-16 -5 -4 10 7 9 11 17 8 17 -3 0 -9 -5 -13 -11z m-144 -69 c0 -5 -4 -10 -10
-10 -5 0 -10 5 -10 10 0 6 5 10 10 10 6 0 10 -4 10 -10z m43 -20 c3 -13 0 -20
-9 -20 -8 0 -14 9 -14 20 0 11 4 20 9 20 5 0 11 -9 14 -20z"/>
<path d="M1179 1186 c-7 -14 -17 -22 -23 -20 -15 6 -46 -47 -46 -79 0 -14 -5
-29 -11 -32 -5 -4 -8 -12 -6 -18 2 -7 1 -24 -4 -39 -6 -21 -3 -27 12 -31 15
-4 19 -1 14 12 -3 10 1 24 10 31 13 11 15 10 10 -6 -4 -12 -1 -11 6 4 7 13 18
21 26 18 8 -4 11 -1 8 5 -4 5 3 18 14 28 12 10 21 23 21 30 0 6 4 11 10 11 5
0 7 7 3 15 -3 10 0 15 8 13 8 -2 14 5 14 14 0 9 3 20 7 24 14 13 -13 44 -38
44 -16 0 -28 -8 -35 -24z"/>
<path d="M1393 1119 c-50 -15 -41 -33 12 -26 52 5 66 14 45 27 -17 11 -15 11
-57 -1z"/>
<path d="M450 1374 c-13 -34 -13 -106 1 -141 l11 -28 14 34 c20 46 19 147 -1
155 -11 4 -19 -3 -25 -20z"/>
<path d="M490 1072 c6 -13 14 -21 18 -18 3 4 -2 14 -12 24 -18 16 -18 16 -6
-6z"/>
</g>
</svg>
