<?xml version="1.0" encoding="utf-8"?>
<!-- Generator: Adobe Illustrator 15.1.0, SVG Export Plug-In . SVG Version: 6.00 Build 0)  -->
<!DOCTYPE svg PUBLIC "-//W3C//DTD SVG 1.1//EN" "http://www.w3.org/Graphics/SVG/1.1/DTD/svg11.dtd">
<svg version="1.1" id="Layer_1" xmlns="http://www.w3.org/2000/svg" xmlns:xlink="http://www.w3.org/1999/xlink" x="0px" y="0px"
	 width="522px" height="378px" viewBox="0 0 522 378" enable-background="new 0 0 522 378" xml:space="preserve">
<g>
	<g>
		<path fill="#9E1C20" d="M262.009,187.838l0.257,0.039l0.072-0.025L262.009,187.838z M262.038,188.015l0.235,0.08l0.073-0.01
			L262.038,188.015z M260.161,187.887l-0.228-0.128l-0.076-0.003L260.161,187.887z M261.293,187.946l-0.018-0.035l-0.025-0.035
			l-0.029-0.028l-0.031-0.021l-0.029-0.013l-0.045-0.01l-0.037-0.002l-0.037,0.007l-0.037,0.011l-0.035,0.02l-0.022,0.02
			l-0.032,0.038l-0.018,0.03l-0.015,0.036l-0.008,0.044l-0.002,0.039l0.006,0.042l0.01,0.035l0.02,0.037l0.025,0.033l0.029,0.029
			l0.03,0.021l0.031,0.012l0.043,0.011h0.037l0.039-0.004l0.033-0.013l0.037-0.02l0.027-0.023l0.029-0.035l0.018-0.029l0.014-0.037
			l0.01-0.045l0.001-0.037l-0.005-0.042L261.293,187.946z M260.143,188.058l-0.236-0.082l-0.074,0.011L260.143,188.058z
			 M262.02,188.185l0.228,0.129l0.077,0.001L262.02,188.185z M262.291,188.102L522,277.438v-30.336l-259.645-59.016L262.291,188.102
			z M260.172,188.232l-0.256-0.038l-0.074,0.025L260.172,188.232z M261.562,186.796l-0.177,0.299l0.16-0.217L261.562,186.796z
			 M261.352,186.808l0.002-0.08l-0.121,0.318L261.352,186.808z M261.068,187.033l0.078-0.255l-0.01-0.078L261.068,187.033z
			 M262.282,187.88L522,226.363v-28.518l-259.653-9.995L262.282,187.88z M262.262,188.321L522,334.684v-34.477L262.331,188.319
			L262.262,188.321z M260.917,186.709l-0.013,0.351l0.036-0.271L260.917,186.709z M261.675,187.257l0.22-0.146l0.041-0.07
			L261.675,187.257z M260.703,186.763l0.045,0.343l-0.01-0.271L260.703,186.763z M261.759,186.903l-0.21,0.249l0.182-0.177
			L261.759,186.903z M261.794,187.376l0.238-0.103l0.051-0.059L261.794,187.376z M260.637,188.916l-0.187,0.179l-0.028,0.074
			L260.637,188.916z M260.794,188.978l-0.16,0.218l-0.017,0.079L260.794,188.978z M260.83,189.264l-0.003,0.081l0.122-0.32
			L260.83,189.264z M260.383,188.698l-0.234,0.1l-0.051,0.059L260.383,188.698z M260.271,188.97L0,362.174V378h31.984
			l228.255-188.965L260.271,188.97z M259.984,187.539L33.571,0H0v14.465l259.916,173.063L259.984,187.539z M260.217,188.399
			l-0.258,0.01l-0.068,0.039L260.217,188.399z M487.864,0L261.941,187.035l-0.031,0.066L522,14.019V0H487.864z M260.505,188.815
			l-0.218,0.146l-0.041,0.068L260.505,188.815z M261.111,189.039l-0.077,0.253l0.011,0.081L261.111,189.039z M260.289,188.556
			l-0.253,0.058l-0.062,0.05L260.289,188.556z M262.025,188.933l-0.199-0.271l0.135,0.228L262.025,188.933z M261.264,189.361
			l0.012-0.35l-0.035,0.271L261.264,189.361z M262.258,188.539l-0.279-0.186l0.203,0.168L262.258,188.539z M262.158,188.748
			l-0.244-0.235l0.173,0.203L262.158,188.748z M261.434,188.965l0.009,0.272l0.036,0.073L261.434,188.965z M261.633,189.153
			l0.047,0.065l-0.1-0.333L261.633,189.153z M261.809,189.039l0.057,0.052l-0.151-0.302L261.809,189.039z M262.16,187.454
			L522,128.469V98.12l-259.788,89.286L262.16,187.454z M260.132,188.806L0,300.812v34.521l260.09-146.472L260.132,188.806z
			 M260.438,189.106L63.405,378h36.571l160.439-188.825L260.438,189.106z M260.623,189.21L122.1,378h27.201l111.312-188.718
			L260.623,189.21z M260.821,189.281L166.618,378h22.199l72.007-188.647L260.821,189.281z M260.019,188.616L0,247.643v30.373
			l259.968-89.35L260.019,188.616z M259.941,188.411L0,198.346v28.543l259.883-38.438L259.941,188.411z M259.889,187.971L0,98.573
			v30.358l259.824,59.054L259.889,187.971z M259.918,187.75L0,41.286v34.501l259.85,111.966L259.918,187.75z M260.547,186.919
			l-0.047-0.064l0.102,0.331L260.547,186.919z M261.443,189.256L267.834,378h18.367l-24.723-188.682L261.443,189.256z
			 M262.1,188.731L422.836,378h36.63L262.164,188.753L262.1,188.731z M261.971,188.907L373.441,378h27.238L262.03,188.94
			L261.971,188.907z M261.814,189.054L333.883,378h22.223l-94.236-188.901L261.814,189.054z M262.196,188.533L490.938,378H522
			v-16.514L262.266,188.544L262.196,188.533z M236.469,378h18.363l6.432-188.63l-0.025-0.066L236.469,378z M261.637,189.173
			L299.607,378h19.549l-57.475-188.774L261.637,189.173z M261.029,189.312L203.532,378h19.534l37.977-188.619L261.029,189.312z
			 M260.082,187.341L100.982,0H64.726l195.29,187.318L260.082,187.341z M259.898,188.193L0,149.681v28.537l259.834,10.001
			L259.898,188.193z M259.923,187.533l0.28,0.187l-0.205-0.168L259.923,187.533z M261.965,187.672l0.256-0.011l0.068-0.037
			L261.965,187.672z M260.022,187.325l0.245,0.235l-0.174-0.206L260.022,187.325z M262.238,187.661L522,177.732V149.21
			l-259.703,38.413L262.238,187.661z M260.156,187.139l0.199,0.272l-0.136-0.23L260.156,187.139z M261.893,187.517l0.252-0.059
			l0.061-0.048L261.893,187.517z M260.373,187.035l-0.057-0.054l0.151,0.303L260.373,187.035z M262.049,187.267L522,75.339V40.841
			L262.091,187.21L262.049,187.267z M285.459,0h-18.176l-6.366,186.702l0.026,0.068L285.459,0z M260.738,186.815L254.412,0h-18.18
			l24.469,186.754L260.738,186.815z M260.544,186.9L222.96,0h-19.348l56.886,186.845L260.544,186.9z M260.365,187.017L189.034,0
			h-21.996l93.274,186.973L260.365,187.017z M260.211,187.165L149.877,0h-26.963L260.15,187.132L260.211,187.165z M261.744,186.962
			L456.764,0h-36.197L261.766,186.896L261.744,186.962z M261.152,186.761L318.062,0h-19.336l-37.588,186.69L261.152,186.761z
			 M261.559,186.862L398.667,0h-26.925L261.568,186.789L261.559,186.862z M332.627,0l-71.27,186.72l0.002,0.071L354.6,0H332.627z"/>
	</g>
</g>
</svg>
