<?xml version="1.0" encoding="utf-8"?>
<!-- Generator: Adobe Illustrator 15.1.0, SVG Export Plug-In . SVG Version: 6.00 Build 0)  -->
<!DOCTYPE svg PUBLIC "-//W3C//DTD SVG 1.1//EN" "http://www.w3.org/Graphics/SVG/1.1/DTD/svg11.dtd">
<svg version="1.1" id="Layer_1" xmlns="http://www.w3.org/2000/svg" xmlns:xlink="http://www.w3.org/1999/xlink" x="0px" y="0px"
	 width="40.646px" height="40.718px" viewBox="0 0 40.646 40.718" enable-background="new 0 0 40.646 40.718" xml:space="preserve">
<g>
	<path d="M0.047,17.741c-0.229-2.749,0.394-5.326,1.637-7.764c0.249-0.488,0.62-0.893,1.016-1.272
		C3.565,7.872,4.547,7.185,5.557,6.55c1.49-0.938,2.907-1.981,4.373-2.954c0.75-0.498,1.479-1.036,2.265-1.47
		c1.648-0.912,3.449-1.373,5.294-1.721c2.271-0.428,4.506-0.226,6.742,0.201c1.133,0.216,2.254,0.465,3.351,0.838
		c1.281,0.438,2.474,1.026,3.566,1.824c0.475,0.346,0.964,0.669,1.447,1.002c0.346,0.237,0.677,0.487,0.971,0.793
		c1.554,1.618,3.068,3.262,4.256,5.187c0.642,1.04,1.157,2.134,1.651,3.244c0.094,0.21,0.199,0.415,0.288,0.628
		c0.405,0.974,0.71,1.969,0.709,3.039c-0.001,0.965-0.003,1.929,0.105,2.889c0.215,1.89-0.08,3.717-0.656,5.514
		c-0.141,0.438-0.274,0.89-0.315,1.344c-0.115,1.298-0.757,2.392-1.332,3.5c-1.139,2.193-2.672,4.115-4.415,5.85
		c-1.612,1.604-3.407,2.994-5.599,3.746c-1.153,0.396-2.355,0.609-3.573,0.676c-1.361,0.074-2.729,0.053-4.078-0.15
		c-0.951-0.143-1.898-0.346-2.827-0.596c-1.459-0.393-2.956-0.61-4.409-1.016c-2.18-0.609-4.334-1.29-6.365-2.318
		c-0.689-0.35-1.275-0.809-1.773-1.382c-1.69-1.945-3.089-4.069-3.931-6.528c-0.491-1.437-0.759-2.914-0.864-4.426
		c-0.125-1.776-0.265-3.553-0.386-5.33C0.023,18.537,0.047,18.139,0.047,17.741z M39.841,18.093c0.072-1.579-0.07-2.337-0.736-3.957
		c-0.85-2.069-1.983-3.961-3.355-5.729c-0.647-0.834-1.411-1.544-2.121-2.312c-1.283-1.39-2.903-2.324-4.487-3.306
		c-0.142-0.088-0.303-0.143-0.458-0.206c-1.087-0.442-2.176-0.877-3.344-1.071c-0.454-0.074-0.898-0.205-1.352-0.285
		c-1.718-0.303-3.442-0.503-5.19-0.299c-0.479,0.055-0.952,0.143-1.429,0.207c-0.911,0.125-1.817,0.3-2.69,0.611
		c-1.208,0.433-2.364,0.954-3.397,1.74C10.448,4.119,9.497,4.58,8.693,5.266C8.22,5.67,7.691,6.028,7.142,6.324
		c-1.543,0.83-2.933,1.862-4.209,3.053c-0.354,0.329-0.615,0.731-0.841,1.165c-1.12,2.149-1.619,4.427-1.551,6.85
		c0.067,2.411,0.286,4.812,0.462,7.214c0.086,1.186,0.327,2.365,0.704,3.506c0.803,2.427,2.169,4.524,3.805,6.459
		c0.459,0.543,0.981,1.003,1.637,1.343c2.062,1.07,4.253,1.781,6.48,2.368c1.984,0.522,4.01,0.885,6.01,1.349
		c1.943,0.451,3.899,0.511,5.872,0.294c2.287-0.251,4.313-1.082,6.139-2.512c1.818-1.424,3.343-3.099,4.685-4.956
		c0.923-1.277,1.696-2.644,2.315-4.096c0.141-0.33,0.25-0.668,0.294-1.023c0.085-0.688,0.226-1.365,0.435-2.026
		c0.489-1.55,0.771-3.12,0.625-4.761C39.924,19.654,39.796,18.758,39.841,18.093z"/>
	<path d="M3.347,19.645c0.015-1.301,0.096-2.593,0.408-3.865c0.165-0.671,0.303-1.345,0.549-1.995
		c0.357-0.939,0.979-1.695,1.607-2.457c0.826-1.002,1.626-2.025,2.539-2.95c0.729-0.739,1.568-1.337,2.542-1.693
		c1.501-0.55,2.937-1.223,4.312-2.036c1.356-0.803,2.838-1.177,4.41-1.338c2.022-0.207,3.968,0.024,5.874,0.689
		c2.15,0.75,4.154,1.787,5.937,3.211c0.618,0.493,1.114,1.141,1.763,1.604c1.155,0.822,1.764,2.053,2.418,3.231
		c0.549,0.986,1.119,1.965,1.574,3.005c0.396,0.904,0.742,1.822,0.966,2.784c0.048,0.202,0.071,0.413,0.077,0.621
		c0.027,1.02,0.062,2.04,0.205,3.051c0.103,0.72,0.021,1.422-0.103,2.124c-0.3,1.699-0.726,3.369-1.489,4.918
		c-0.778,1.58-1.741,3.055-2.924,4.374c-0.573,0.641-1.176,1.252-1.787,1.856c-1.152,1.138-2.59,1.838-3.971,2.624
		c-0.92,0.523-1.939,0.794-2.966,1.004c-1.784,0.363-3.565,0.366-5.364-0.009c-2.367-0.494-4.681-1.129-6.876-2.162
		c-1.1-0.518-2.213-1.004-3.32-1.506c-0.883-0.399-1.587-1.016-2.13-1.809c-0.51-0.744-1.052-1.458-1.626-2.156
		c-0.948-1.15-1.452-2.535-1.891-3.942c-0.29-0.929-0.408-1.887-0.458-2.85C3.55,22.529,3.353,21.094,3.347,19.645z M20.679,3.958
		c-0.23,0-0.461-0.004-0.691,0.001c-1.694,0.031-3.285,0.46-4.708,1.377c-1.211,0.78-2.534,1.296-3.866,1.796
		C10.51,7.47,9.746,7.995,9.036,8.628c-1.228,1.096-2.172,2.438-3.216,3.691c-0.358,0.432-0.673,0.908-0.898,1.436
		c-0.744,1.746-0.997,3.589-1.031,5.463c-0.035,1.889,0.188,3.769,0.394,5.641c0.224,2.031,0.906,3.925,2.218,5.527
		c0.585,0.715,1.134,1.453,1.665,2.206c0.55,0.779,1.296,1.297,2.153,1.679c0.479,0.213,0.945,0.453,1.43,0.652
		c1.182,0.484,2.306,1.099,3.52,1.515c1.727,0.593,3.478,1.057,5.275,1.403c2.038,0.393,3.997,0.182,5.961-0.35
		c1.422-0.385,2.604-1.236,3.854-1.954c0.624-0.358,1.17-0.812,1.68-1.313c1.075-1.061,2.127-2.148,2.947-3.424
		c0.633-0.983,1.314-1.94,1.736-3.053c0.545-1.437,0.927-2.914,1.201-4.421c0.093-0.515,0.143-1.036,0.032-1.562
		c-0.12-0.577-0.142-1.168-0.119-1.753c0.067-1.722-0.365-3.326-1.134-4.844c-0.625-1.232-1.29-2.446-1.964-3.653
		c-0.523-0.939-1.172-1.778-2.06-2.419c-0.32-0.231-0.613-0.512-0.881-0.805c-0.894-0.979-2.009-1.636-3.173-2.224
		c-0.542-0.274-1.098-0.521-1.645-0.789C24.993,4.307,22.907,3.786,20.679,3.958z"/>
	<path d="M5.134,19.759c-0.059-1.481,0.084-2.83,0.399-4.163c0.292-1.231,0.917-2.299,1.702-3.257
		c0.782-0.955,1.687-1.805,2.647-2.584c1.136-0.922,2.428-1.521,3.83-1.96c2.482-0.776,5.017-1.189,7.604-1.185
		c1.853,0.003,3.655,0.429,5.406,1.035c0.824,0.285,1.512,0.817,2.192,1.335c0.799,0.606,1.603,1.225,2.341,1.891
		c1.553,1.401,2.972,2.927,3.805,4.923c0.44,1.056,0.714,2.141,0.95,3.24c0.153,0.717,0.09,1.461,0.021,2.191
		c-0.046,0.483-0.033,0.959,0.029,1.44c0.15,1.172-0.024,2.296-0.542,3.363c-0.073,0.15-0.15,0.301-0.203,0.46
		c-0.658,1.98-1.994,3.452-3.534,4.788c-1.339,1.161-2.817,2.107-4.386,2.91c-1.58,0.809-3.261,1.267-5.05,1.382
		c-1.759,0.113-3.458-0.201-5.177-0.467c-1.515-0.234-2.896-0.799-4.255-1.462c-0.131-0.064-0.267-0.122-0.405-0.169
		c-0.988-0.336-1.851-0.863-2.594-1.603c-1.193-1.189-2.219-2.518-3.055-3.966c-0.854-1.478-1.391-3.088-1.526-4.812
		C5.244,21.943,5.027,20.805,5.134,19.759z M5.667,19.747c-0.101,1.072,0.094,2.169,0.185,3.274
		c0.108,1.321,0.525,2.548,1.067,3.726c0.698,1.512,1.754,2.801,2.847,4.044c0.709,0.807,1.524,1.507,2.549,1.896
		c0.785,0.298,1.533,0.676,2.308,0.992c0.465,0.189,0.911,0.427,1.41,0.528c1.539,0.315,3.078,0.643,4.647,0.757
		c1.908,0.14,3.76-0.159,5.535-0.884c2.459-1.004,4.593-2.499,6.46-4.372c0.708-0.712,1.36-1.488,1.754-2.432
		c0.291-0.695,0.521-1.415,0.816-2.108c0.313-0.737,0.383-1.496,0.29-2.277c-0.062-0.521-0.115-1.045-0.047-1.565
		c0.184-1.408-0.075-2.767-0.509-4.084c-0.468-1.417-1.112-2.759-2.14-3.878c-0.906-0.988-1.804-1.984-2.941-2.726
		c-0.174-0.112-0.31-0.281-0.468-0.418c-1.163-1.011-2.4-1.89-3.907-2.329c-2.773-0.811-5.567-0.844-8.395-0.329
		c-1.221,0.223-2.394,0.591-3.576,0.945c-1.179,0.353-2.249,0.888-3.235,1.624c-0.727,0.543-1.321,1.218-1.98,1.829
		c-0.569,0.528-1.037,1.147-1.444,1.811c-0.476,0.773-0.854,1.59-0.999,2.493C5.71,17.402,5.573,18.546,5.667,19.747z"/>
	<path d="M22.682,8.97c1.019-0.07,2.222,0.23,3.393,0.745c0.786,0.345,1.411,0.898,2.039,1.443c1.076,0.932,2.064,1.961,3.027,3.009
		c1.153,1.256,1.928,2.691,2.192,4.426c0.245,1.605,0.411,3.184,0.164,4.807c-0.126,0.823-0.165,1.661-0.307,2.489
		c-0.188,1.101-0.634,2.033-1.498,2.745c-0.824,0.679-1.667,1.326-2.571,1.905c-0.908,0.581-1.902,0.883-2.93,1.057
		c-1.633,0.276-3.222,0.752-4.856,1.008c-1.393,0.218-2.775,0.374-4.168-0.056c-1.323-0.407-2.472-1.088-3.528-1.967
		c-0.873-0.727-1.665-1.533-2.413-2.379c-0.642-0.726-1.14-1.574-1.4-2.506c-0.458-1.639-0.739-3.313-0.584-5.027
		c0.113-1.255,0.363-2.475,0.787-3.675c0.462-1.309,0.99-2.574,1.68-3.779c0.496-0.867,1.213-1.496,2.046-1.987
		c1.123-0.663,2.337-1.11,3.611-1.418c1.017-0.245,2.025-0.52,3.05-0.739C21.08,8.928,21.746,8.935,22.682,8.97z M22.237,9.61
		c-0.829-0.109-1.694,0.036-2.553,0.247c-0.528,0.131-1.058,0.261-1.587,0.386c-1.454,0.346-2.856,0.822-4.159,1.569
		c-0.686,0.395-1.271,0.91-1.687,1.569c-1.045,1.665-1.736,3.49-2.189,5.393c-0.5,2.097-0.388,4.196,0.174,6.279
		c0.284,1.057,0.806,1.982,1.511,2.79c0.715,0.819,1.493,1.581,2.348,2.267c1.297,1.038,2.695,1.841,4.37,2.052
		c1.093,0.138,2.177-0.031,3.244-0.235c1.664-0.318,3.311-0.729,4.976-1.042c1.457-0.273,2.619-1.065,3.734-1.96
		c0.259-0.208,0.494-0.443,0.767-0.643c0.754-0.551,1.281-1.262,1.425-2.209c0.32-2.109,0.642-4.21,0.338-6.363
		c-0.286-2.033-0.956-3.85-2.449-5.312c-0.778-0.762-1.521-1.56-2.307-2.313c-0.975-0.936-2.033-1.74-3.355-2.151
		C24.004,9.675,23.16,9.587,22.237,9.61z"/>
	<path d="M12.25,20.856c0.06-1.812,0.356-3.695,1.349-5.416c0.204-0.354,0.501-0.616,0.764-0.912
		c0.665-0.753,1.357-1.476,2.17-2.083c0.621-0.464,1.307-0.751,2.038-0.937c0.729-0.186,1.477-0.295,2.228-0.37
		c0.986-0.099,1.915,0.187,2.832,0.463c1.189,0.358,2.306,0.932,3.298,1.657c2.073,1.517,3.583,3.426,3.909,6.102
		c0.159,1.311,0.38,2.612,0.323,3.938c-0.058,1.341-0.341,2.629-1.131,3.734c-0.813,1.139-1.966,1.869-3.262,2.346
		c-1.34,0.493-2.733,0.81-4.146,0.99c-1.313,0.168-2.578-0.17-3.829-0.536c-1.862-0.545-3.151-1.846-4.317-3.295
		c-0.459-0.57-0.844-1.2-1.297-1.774c-0.501-0.635-0.726-1.359-0.801-2.143C12.324,22.078,12.297,21.534,12.25,20.856z
		 M30.629,23.144c-0.018-1.394-0.219-2.591-0.388-3.794c-0.334-2.395-1.725-4.103-3.568-5.481c-0.885-0.66-1.88-1.191-2.943-1.537
		c-0.934-0.303-1.866-0.637-2.879-0.55c-0.713,0.061-1.419,0.155-2.109,0.337c-0.772,0.203-1.509,0.478-2.142,1.007
		c-0.775,0.649-1.474,1.366-2.136,2.126c-0.49,0.563-0.825,1.202-1.073,1.901c-0.63,1.781-0.731,3.604-0.461,5.458
		c0.072,0.496,0.157,0.99,0.466,1.418c0.823,1.139,1.623,2.295,2.611,3.3c0.925,0.94,2.012,1.639,3.289,2.005
		c0.423,0.121,0.857,0.195,1.287,0.294c0.617,0.142,1.248,0.204,1.872,0.126c2.003-0.25,3.981-0.601,5.71-1.75
		c1.057-0.703,1.904-1.578,2.199-2.861C30.527,24.431,30.729,23.716,30.629,23.144z"/>
	<path d="M28.423,22.126c0.046,1.081-0.216,2.091-0.782,2.997c-0.505,0.809-1.236,1.413-2.024,1.941
		c-0.23,0.155-0.518,0.16-0.782,0.218c-0.839,0.183-1.673,0.378-2.538,0.416c-1.311,0.056-2.51-0.199-3.628-0.954
		c-1.071-0.725-1.903-1.615-2.45-2.779c-0.234-0.499-0.303-1.046-0.393-1.58c-0.142-0.846-0.246-1.698-0.344-2.55
		c-0.096-0.844,0.003-1.678,0.251-2.484c0.408-1.326,1.369-2.196,2.539-2.818c1.017-0.541,2.111-0.909,3.269-1.065
		c2.594-0.351,4.619,0.949,5.623,3.182C27.941,18.378,28.32,20.228,28.423,22.126z M22.182,27.077
		c0.582,0.027,1.234-0.151,1.897-0.23c0.948-0.113,1.786-0.424,2.395-1.203c0.051-0.065,0.107-0.134,0.177-0.177
		c0.555-0.347,0.784-0.908,0.987-1.484c0.226-0.643,0.283-1.31,0.227-1.983c-0.148-1.785-0.497-3.534-1.29-5.146
		c-1.012-2.057-2.84-3.104-5.133-2.752c-1.039,0.16-2.04,0.488-2.971,0.979c-0.684,0.359-1.302,0.824-1.763,1.47
		c-0.629,0.882-0.778,1.883-0.718,2.928c0.049,0.856,0.207,1.703,0.317,2.554c0.165,1.271,0.618,2.391,1.569,3.268
		C19.063,26.393,20.392,27.179,22.182,27.077z"/>
	<path d="M22.042,25.226c-0.974,0.04-1.853-0.296-2.717-0.678c-0.254-0.111-0.453-0.32-0.584-0.557
		c-0.509-0.912-0.99-1.839-1.316-2.837c-0.14-0.428-0.08-0.831,0.111-1.217c0.399-0.808,0.863-1.584,1.4-2.302
		c0.457-0.61,1.077-1.056,1.859-1.194c1.429-0.253,2.796-0.11,4.041,0.693c0.676,0.436,1.015,1.128,1.166,1.868
		c0.253,1.227,0.084,2.456-0.186,3.666c-0.089,0.398-0.388,0.688-0.644,0.993c-0.618,0.738-1.317,1.347-2.323,1.473
		C22.582,25.169,22.312,25.195,22.042,25.226z M21.867,16.943c-0.333,0.037-0.665,0.072-0.997,0.113
		c-0.573,0.069-1.041,0.375-1.386,0.794c-0.584,0.711-1.047,1.512-1.481,2.324c-0.12,0.227-0.153,0.479-0.051,0.729
		c0.365,0.89,0.715,1.787,1.251,2.595c0.141,0.211,0.296,0.406,0.534,0.517c0.866,0.402,1.77,0.663,2.732,0.558
		c0.778-0.086,1.534-0.257,1.989-1.007c0.063-0.104,0.155-0.21,0.26-0.269c0.451-0.25,0.609-0.669,0.688-1.136
		c0.12-0.702,0.19-1.416,0.169-2.123c-0.037-1.234-0.507-2.256-1.754-2.71C23.199,17.102,22.554,16.9,21.867,16.943z"/>
	<path d="M21.812,23.091c0.019,0-0.003-0.004-0.023,0c-0.711,0.138-1.086-0.231-1.328-0.848c-0.098-0.249-0.27-0.471-0.416-0.7
		c-0.29-0.45-0.388-0.919-0.171-1.432c0.122-0.29,0.215-0.592,0.344-0.878c0.391-0.876,1.386-1.182,2.176-0.658
		c0.213,0.142,0.436,0.258,0.668,0.34c0.708,0.249,0.995,0.809,1.1,1.48c0.164,1.047-0.436,2.144-1.384,2.596
		C22.481,23.132,22.167,23.121,21.812,23.091z M23.627,20.951c0.019-0.606-0.151-1.053-0.52-1.271
		c-0.396-0.236-0.8-0.458-1.212-0.664c-0.452-0.225-0.935-0.064-1.174,0.383c-0.107,0.202-0.179,0.424-0.266,0.637
		c-0.173,0.42-0.143,0.812,0.131,1.188c0.186,0.255,0.323,0.537,0.44,0.831c0.069,0.174,0.171,0.322,0.373,0.397
		C22.45,22.839,23.742,21.959,23.627,20.951z"/>
	<path d="M21.987,19.976c0.396-0.014,0.732,0.336,0.73,0.763c-0.001,0.609-0.334,1.004-0.852,1.01
		c-0.348,0.004-0.649-0.374-0.662-0.829C21.189,20.402,21.531,19.99,21.987,19.976z M22.021,21.151
		c0.12-0.027,0.2-0.094,0.196-0.212c-0.005-0.187-0.1-0.322-0.296-0.33c-0.11-0.004-0.192,0.084-0.188,0.204
		C21.74,21,21.836,21.12,22.021,21.151z"/>
	<path d="M23.458,11.562c0.064,0.013,0.124,0.037,0.096,0.116c-0.009,0.026-0.063,0.055-0.096,0.054
		c-0.067-0.002-0.119-0.046-0.101-0.118C23.363,11.59,23.423,11.579,23.458,11.562z"/>
</g>
</svg>
